<?xml version="1.0" standalone="yes"?>
<svg xmlns="http://www.w3.org/2000/svg" width="638" height="638">
<path style="fill:#930054; stroke:none;" d="M86 494C86 490.447 86.4828 486.448 85.49 483C83.2568 475.244 76.2036 468.081 72.3056 461C63.6423 445.262 55.8203 428.978 49.865 412C29.7336 354.606 28.0633 288.451 49.0532 231C63.5717 191.262 86.0798 154.099 116.09 124.089C156.605 83.5742 210.369 53.6737 267 43.463C344.699 29.4537 427.535 50.5006 490 98.6512C516.063 118.742 539.23 143.172 556.946 171C581.929 210.243 597.722 255.438 600.911 302C602.425 324.112 600.097 347.161 596.725 369C593.609 389.188 586.806 409.139 579.201 428C577.16 433.061 575.181 438.108 572.752 443C571.384 445.757 569.212 448.872 568.911 452C568.652 454.696 570.231 457.476 571 460C576.492 455.327 578.667 448.327 581.755 442C590.131 424.84 595.553 406.415 600.286 388C622.15 302.93 600.143 208.822 544.576 141C497.944 84.0851 432.531 46.902 360 35.7037C340.972 32.7659 321.327 30.766 302 32.0895C265.852 34.5649 229.963 43.175 197 58.3087C166.077 72.5058 138.346 92.2314 114.039 115.911C91.6517 137.72 72.2652 162.981 58.2469 191C41.5966 224.279 31.3681 258.974 27.8302 296C22.8196 348.44 34.257 403.008 57.7531 450C62.9274 460.349 68.6311 470.336 75.0031 480C78.2759 484.964 81.3618 490.224 86 494M97 455L99 455C100.707 446.162 90.8881 435.896 87.4252 428C78.6671 408.031 71.4795 387.453 67.4599 366C51.4964 280.803 81.6548 194.093 145 135.09C198.031 85.6937 272.727 59.5083 345 68.1844C378.604 72.2184 411.259 83.1854 441 99.3087C466.519 113.143 488.147 132.123 508 153C527.885 173.911 543.621 200.318 554.396 227C575.229 278.591 578.191 335.605 562.576 389C558.385 403.331 552.958 417.453 546.691 431C544.01 436.794 540.459 442.094 538 448C545.758 447.383 548.297 437.174 551.255 431C559.703 413.364 566.733 394.158 570.789 375C588.063 293.421 564.661 208.707 508.83 147C490.718 126.981 468.646 109.688 445 96.6945C413.954 79.634 381.007 69.0732 346 64.2091C327.105 61.5837 306.867 62.4507 288 64.7145C198.418 75.463 119.032 132.614 81.3086 215C55.0223 272.408 52.3689 340.151 71.7454 400C78.013 419.359 87.1717 437.276 97 455M225 91L225 93C238.539 98.6384 250.698 106.697 265 110.7C312.818 124.084 367.905 120.447 410 92C398.35 84.2654 381.465 81.342 368 78.49C319.957 68.3142 270.649 73.3912 225 91M417 95L419 99L413 98C413.634 101.154 414.121 102.451 412 105C411.422 102.302 410.739 102.211 408 102C408.988 104.877 410.633 107.29 412 110C407.13 110.82 398.51 117.32 397 122C394.703 121.326 394.226 121.035 393 119C383.256 121.297 373.426 124.714 364 128C365.151 125.981 366.015 125.277 368 124C366.283 122.16 365.434 121.651 363 121C360.908 124.973 357.287 127.548 356 132C365.601 131.39 375.492 128.556 385 126.897C389.158 126.171 391.754 124.98 396 126C399.061 121.238 405.276 119.443 407 114C409.336 115.276 411.42 116.369 414 117C413.387 115.339 412.957 114.517 412 113C418.998 110.786 425.82 100.744 431 109C425.371 110.535 420.98 112.814 420 119C425.252 117.544 429.13 113.407 434 111C435.508 117.301 428.508 124.196 423 127C422.101 124.876 422.124 124.899 420 124C420.482 126.364 420.636 126.518 423 127L422 130L412 124C412.109 126.93 413.676 128.43 415 131C412.703 130.326 412.226 130.035 411 128C407.302 129.144 403.319 132.318 402 136C398.308 136.277 395.512 138.089 392 139C394.168 136.643 396.115 135.153 397 132C391.945 133.045 391.217 136.213 387.726 139.468C385.261 141.767 382.12 142.918 379 144C376.933 141.733 374.011 142.129 371 142.05C363.875 141.863 357.207 143.362 350 143C345.165 148.079 335.474 147.307 329 146L330 142C335.041 144.016 338.822 142.019 344 142C340.849 138.875 330.729 135.813 329 141C321.045 140.973 316.813 136.689 309.661 134.883C307.693 134.385 305.87 135.373 303.91 135.456C299.675 135.635 295.271 135 291 135C294.756 141.134 302.918 137.883 308.91 138.589C312.52 139.014 314.429 142.384 317.428 144.015C321.341 146.144 325.385 144.851 328 149C321.635 147.818 315.393 148.439 309 147.83C299.919 146.966 290.816 145.353 282 143.014C277.182 141.736 269.864 142.421 267 138C264.618 138.918 262.539 139.676 260 140C261.447 138.333 262.87 136.881 264 135C253.444 134.43 247.632 125.284 238 123C242.003 131.226 252.462 133.78 258 141C253.085 140.264 249.026 138.061 244 139C244.986 137.522 245 137.797 245 136C241.525 136.264 239.824 136.048 238 133L231 135L232 130C225.403 130.416 221.339 124.925 215 124C215.49 127.363 217.071 129.273 219 132C216.519 133.017 215.736 133.438 215 136L212 135L212 133C213.797 133 213.521 132.986 215 132L215 130C213.521 129.014 213.797 129 212 129C209.39 132.469 206.018 129.001 203.417 126.67C198.37 122.146 197.356 119.265 200 113L204 115L205 114L205 112L202 112L209 100C212.257 101.766 214.312 102.613 218 102C220.08 105.731 224.047 106.067 227 109L229 109L231 105C226.791 103.755 223.453 101.309 219 101C218.066 97.8734 217.127 96.9342 214 96L215 100C207.101 97.584 201.756 101.876 195 105.719C181.893 113.174 169.521 121.691 158 131.424C122.439 161.468 95.7711 200.738 81.3302 245C75.4677 262.969 71 282.029 71 301C79.3179 294.13 84.5811 282.789 90.7199 274C104.598 254.13 118.068 233.963 131.809 214C137.429 205.834 142.315 195.352 150 189C150.617 183.634 155.881 177.307 160 174C161.437 177.576 163.286 177.877 167 178C166.438 179.801 166.176 181.122 166 183L172 180L170 186C174.261 185.44 176.52 183.812 180 187C182.481 185.983 183.264 185.562 184 183L187 183L187 186L191 186L191 183C193.33 182.685 194.918 182.098 197 181C197.839 184.893 200.703 183.346 204 183C203.861 185.453 203.929 185.676 206 187L205 183C206.878 182.824 208.199 182.562 210 182L211 187L216 187L216 191L220 191L217 183L220 183L220 187L224 187L224 183L229 183L229 187L234 187L234 191L238 191L238 188L242 188C240.152 191.357 237.401 194.237 234 196L234 192L229 192C227.849 194.019 226.985 194.723 225 196C224.032 193.036 223.066 192.497 220 192C220.68 195.211 222.529 197.161 224 200L220 200L220 196C218.122 196.176 216.801 196.438 215 197L216 201L211 201C211.683 204.594 215.044 206.461 216 202C219.162 203.652 223.121 205.996 225 209C226.978 208.537 229.047 207.537 231.09 207.468C233.894 207.373 235.839 209.012 238 207L240 207C242.372 209.919 245.483 209.5 249 209L248 213C250.364 212.518 250.518 212.364 251 210C253.232 210.363 254.768 210.363 257 210C256.014 211.478 256 211.203 256 213C258.786 213.458 259.455 213.369 261 211C267.145 214.508 270.913 217.503 278 215C279.717 219.883 284.549 218.904 289 219.015C293.716 219.132 298.302 220.376 303 220.625C306.539 220.813 309.022 219.831 312 222C315.977 220.77 318.867 220.278 323 221C330.569 215.266 347.066 220.21 353 211C356.767 212.909 359.078 212.214 363 211L363 207C367.574 207.69 373.365 207.112 376 203C381.043 204.312 383.32 202.54 388 201C388 202.797 388.014 202.521 389 204L397 201L397 204C401.814 203.279 405.2 200.94 406 196L411 196L411 200C413.993 199.936 415.346 200.054 416 197L420 198L420 200C417.558 201.047 416.465 201.798 415 204C416.801 204.562 418.122 204.824 420 205C420.747 209.618 423.901 212.052 428 214C429.658 212.078 430.741 211.105 433 210C434.127 212.841 434.987 213.492 438 214C438.508 217.013 439.159 217.873 442 219L442 214C445.41 213.737 446.901 213.321 448 210L452 210L452 214L457 214L457 210C461.484 212.325 463.635 216.269 469 217C468.518 214.636 468.364 214.482 466 214C466.847 210.857 468.515 208.258 469 205C466.374 205.839 465.839 206.374 465 209L461 209L461 205C465.312 203.769 467.545 201.195 469 197C466.876 196.101 466.899 196.124 466 194C469.372 195.652 471.448 198.834 475 200C473.795 197.34 471.873 192.488 468.746 191.639C466.75 191.097 464.092 192.076 462 192C464.11 187.872 462.699 186.009 461 182L457 182L457 186C454.867 184.845 454.218 184.118 453 182L457 181L457 179L453 178L454 174L456 174C457.539 176.179 458.356 176.573 461 177C461.968 179.964 462.934 180.503 466 181L466 177L470 177L470 173C471.878 172.824 473.199 172.562 475 172L476 173C475.014 174.479 475 174.203 475 176C482.476 179.796 491.595 191.604 483 198L486 205C484.244 203.573 483.175 202.585 481 202C481.482 204.364 481.636 204.518 484 205C482.987 208.604 480.591 211.246 480 215L484 216C481.303 218.357 474.355 222.491 474.917 226.701C475.221 228.974 478.617 230.27 479.799 232.129C481.614 234.984 480.376 237.928 480 241L484 241L484 245C487.018 244.55 489.245 243.234 492 242C493.401 248.536 502.166 240.848 501 236L497 237L497 232C500.066 231.503 501.032 230.964 502 228C498.653 228.539 496.877 230.429 494 232C496.285 226.778 500.877 223.31 503 218C504.868 221.927 503.176 223.223 502 227C504.463 226.661 507.6 224.957 509.999 226.018C512.507 227.127 514.145 229.85 515.655 232C519.451 237.404 526.039 244.114 526 251C531.47 252.62 535.227 260.465 538.341 265C543.16 272.017 548.246 278.89 552.921 286C556.573 291.555 559.83 297.73 565 302C559.727 235.196 527.858 173.098 476 130.25C459.23 116.394 438.172 101.097 417 95M233 106L233 109L238 109L238 106L233 106M404 106L403 110L407 109L407 107L406 106L404 106M397 113C398.878 112.824 400.199 112.562 402 112L402 110L401 109C398.751 110.154 398.154 110.751 397 113M231 110L231 112L233 112L233 110L231 110M239 110C240.226 112.035 240.703 112.326 243 113C241.774 110.965 241.297 110.674 239 110M390 111L390 113L392 113L392 111L390 111M244 114C244.899 116.123 244.876 116.101 247 117C245.999 115.076 245.923 114.902 244 114M379 118C382.39 123.061 387.099 117.882 389 114C385.275 114.537 382.472 116.669 379 118M393 117C395.124 116.101 395.101 116.124 396 114C393.636 114.482 393.482 114.636 393 117M205 116C206.45 117.608 207.051 118.064 209 119L210 118L210 116C207.799 115.519 207.201 115.519 205 116M253 116L253 118L255 118L255 116L253 116M262 117L262 119L264 119C263.455 117.365 263.635 117.545 262 117M376.667 117.333C376.222 117.778 377.278 117.722 377.333 117.667C377.778 117.222 376.722 117.278 376.667 117.333M211 119L210 120L210 122L214 123L213 119L211 119M256 119C257.446 121.283 258.311 121.582 261 122C259.554 119.717 258.689 119.418 256 119M370 123L375 122L375 120L374 119C371.751 120.154 371.154 120.751 370 123M416 119C416.899 121.124 416.876 121.101 419 122C418.518 119.636 418.364 119.482 416 119M266 120C268.276 123.998 272.876 126.425 276 122C272.096 122.454 269.656 120.974 266 120M424 120L424 122L426 122L426 120L424 120M203.667 121.333C203.222 121.778 204.278 121.722 204.333 121.667C204.778 121.222 203.722 121.278 203.667 121.333z"/>
<path style="fill:#930054; stroke:none;" d="M281 123L280 127C281.608 125.55 282.064 124.949 283 123L281 123M297 124C295.243 125.733 294.358 126.341 292 127C294.492 130.69 298.597 128.071 302 131L304 131C307.096 128.113 308.904 128.113 312 131L314 131C315.481 129.402 316.061 128.892 318 128C313.847 125.396 308.855 126.407 304.17 126.093C301.754 125.932 299.342 124.608 297 124M347 127C345.349 125.227 344.411 125.548 342 126C344.223 127.213 345.648 127.839 347 130C349.744 128.681 351.955 127.444 355 127C352.672 123.566 350.215 125.262 347 127M403 124C403.674 126.297 403.965 126.774 406 128L405 124L403 124M207 128C209.124 127.101 209.101 127.124 210 125C207.636 125.482 207.482 125.636 207 128M288 128C290.124 127.101 290.101 127.124 291 125C288.636 125.482 288.482 125.636 288 128M334 125C335.171 128.555 337.433 130.059 341 131C339.822 127.234 337.699 126.111 334 125M326 126C327.625 128.306 329.336 129.063 332 130C330.528 127.186 329.122 126.456 326 126z"/>
<path style="fill:#930054; stroke:none;" d="M398 132C400.627 131.161 401.161 130.626 402 128C399.374 128.839 398.839 129.374 398 132M276 129L276 131L278 131L278 129L276 129M390 129L390 132C391.195 130.777 391.316 130.58 392 129L390 129z"/>
<path style="fill:#930054; stroke:none;" d="M279 133L280 136L282 136L283 135L283 133L282 132C280.203 132 280.479 132.014 279 133M335 132C334.861 134.453 334.929 134.676 337 136L337 132L335 132M351 135C353.297 134.326 353.774 134.035 355 132C352.703 132.674 352.226 132.965 351 135M384 132C383.237 136.982 387.484 137.56 389 133L384 132M287 133L287 136L290 136L290 133L287 133M344.333 133.667C344.278 133.722 344.222 134.778 344.667 134.333C344.722 134.278 344.778 133.222 344.333 133.667M375 133L376 137L378 137L379 136L379 134L375 133z"/>
<path style="fill:#930054; stroke:none;" d="M364 140C367.673 138.731 370.15 137.471 372 134C368.05 134.592 365.28 136.107 364 140z"/>
<path style="fill:#930054; stroke:none;" d="M381 137L380 138L380 140C382.364 139.518 382.518 139.364 383 137L381 137z"/>
<path style="fill:#930054; stroke:none;" d="M345 141L351 141C348.988 138.18 346.927 138.105 345 141M357 138L357 140L359 140L359 138L357 138z"/>
<path style="fill:#930054; stroke:none;" d="M183 145L183 147L185 147L185 145L183 145z"/>
<path style="fill:#930054; stroke:none;" d="M179 165L179 169L183 169L183 165L179 165z"/>
<path style="fill:#930054; stroke:none;" d="M342 169L342 173L345 173L345 169L342 169z"/>
<path style="fill:#930054; stroke:none;" d="M461 169L461 173L465 173L465 169L461 169z"/>
<path style="fill:#930054; stroke:none;" d="M158 178L157 179L157 181L158 182L160 182L161 181L161 179L160 178L158 178z"/>
<path style="fill:#930054; stroke:none;" d="M471 178L470 179L470 181C472.364 180.518 472.518 180.364 473 178L471 178z"/>
<path style="fill:#930054; stroke:none;" d="M466 182C466 183.797 466.014 183.521 467 185L469 185C469.986 183.521 470 183.797 470 182L466 182M475 182L475 184L477 184L477 182L475 182M161 184C162.81 185.24 162.777 185.184 165 185C163.19 183.76 163.223 183.816 161 184z"/>
<path style="fill:#930054; stroke:none;" d="M153.667 184.333C153.222 184.778 154.278 184.722 154.333 184.667C154.778 184.222 153.722 184.278 153.667 184.333z"/>
<path style="fill:#930054; stroke:none;" d="M196.333 185.667C196.278 185.722 196.222 186.778 196.667 186.333C196.722 186.278 196.778 185.222 196.333 185.667z"/>
<path style="fill:#930054; stroke:none;" d="M185 187C184.598 188.944 184.598 189.056 185 191C186.243 189.097 186.243 188.903 185 187M225 187L225 191L229 191C228.161 188.374 227.626 187.839 225 187z"/>
<path style="fill:#930054; stroke:none;" d="M157 188C157 189.797 157.014 189.521 158 191C159.195 189.777 159.316 189.58 160 188L157 188M166 188C166 189.797 166.014 189.521 167 191C168.195 189.777 168.316 189.58 169 188L166 188M175 188C175 189.797 175.014 189.521 176 191C177.195 189.777 177.316 189.58 178 188L175 188M207 188L207 191L210 191L210 188L207 188z"/>
<path style="fill:#930054; stroke:none;" d="M199.667 190.333C199.222 190.778 200.278 190.722 200.333 190.667C200.778 190.222 199.722 190.278 199.667 190.333M162 192L162 194L164 194L164 192L162 192M171 192L171 195C172.797 195 172.521 194.986 174 194C172.777 192.805 172.58 192.684 171 192M179 193C180.223 194.195 180.42 194.316 182 195L182 192C180.203 192 180.479 192.014 179 193M203 192C203.776 194.132 204.13 194.771 206 196L206 192L203 192M212 192L212 196L215 196L215 192L212 192z"/>
<path style="fill:#930054; stroke:none;" d="M265 193C266.788 194.421 267.706 194.697 270 195L270 192C268.122 192.176 266.8 192.438 265 193M274 192C274.839 194.626 275.374 195.161 278 196L278 192L274 192M284 192L284 196C286.627 195.161 287.161 194.626 288 192L284 192z"/>
<path style="fill:#930054; stroke:none;" d="M189 193L189 196L191 196L191 193L189 193M196 193L196 196L198 196L198 193L196 193z"/>
<path style="fill:#930054; stroke:none;" d="M174 197C175.893 198.911 176.333 199.138 179 199L179 197C176.968 196.677 176.018 196.66 174 197M185 196C184.861 198.453 184.929 198.676 187 200C186.489 198.048 186.267 197.543 185 196M207 200C209.626 199.161 210.161 198.626 211 196C208.374 196.839 207.839 197.374 207 200M270 196L270 200L274 200L274 196L270 196M279 197L279 199L280 200L282 200L283 196L279 197M288 197L288 199L292 200L292 196L288 197z"/>
<path style="fill:#930054; stroke:none;" d="M158 197L158 199L160 199L160 197L158 197M166 199L169 199L168 197C166.365 197.545 166.545 197.365 166 199M199 197L198 200C199.985 201.277 200.85 201.981 202 204C204.689 203.582 205.554 203.283 207 201L202 201L202 197L199 197z"/>
<path style="fill:#930054; stroke:none;" d="M325 197L324 198L324 200L325 201L327 201L328 200L328 198L327 197L325 197z"/>
<path style="fill:#930054; stroke:none;" d="M163 201C162.014 202.479 162 202.203 162 204C163.58 203.316 163.777 203.195 165 202L163 201M179 201C179 202.797 179.014 202.521 180 204L182 204C182.986 202.521 183 202.797 183 201L179 201z"/>
<path style="fill:#930054; stroke:none;" d="M407 204C409.297 203.326 409.774 203.035 411 201C408.261 201.211 407.578 201.302 407 204z"/>
<path style="fill:#930054; stroke:none;" d="M469 204C471.124 203.101 471.101 203.124 472 201C469.876 201.899 469.899 201.876 469 204M153 202C153 203.797 153.014 203.521 154 205C155.195 203.777 155.316 203.58 156 202L153 202M171 202L171 204L173 204L173 202L171 202M196 202L196 204L198 204L198 202L196 202z"/>
<path style="fill:#930054; stroke:none;" d="M149 206L149 208L151 208L151 206L149 206M157 206C157.899 208.124 157.876 208.101 160 209C159.518 206.636 159.364 206.482 157 206M167.333 206.667C167.278 206.722 167.222 207.778 167.667 207.333C167.722 207.278 167.778 206.222 167.333 206.667M207 206C207 207.797 207.014 207.521 208 209L210 209C210.986 207.521 211 207.797 211 206L207 206M216 206C216.899 208.124 216.876 208.101 219 209C218.101 206.876 218.124 206.899 216 206z"/>
<path style="fill:#930054; stroke:none;" d="M384 209C386.297 208.326 386.774 208.035 388 206C385.261 206.211 384.578 206.303 384 209z"/>
<path style="fill:#930054; stroke:none;" d="M377 207L377 210L379 210L379 207L377 207M153 210L153 213L155 213L155 210L153 210M162 210L162 213L164 213L164 210L162 210M380 210L381 214C382.05 212.265 382.046 212.069 382 210L380 210M390 210L389 211L389 213C391.364 212.518 391.518 212.364 392 210L390 210M416 210C417.226 212.035 417.703 212.326 420 213C418.774 210.965 418.297 210.674 416 210z"/>
<path style="fill:#930054; stroke:none;" d="M470 210C470.482 212.364 470.636 212.518 473 213C473 211.203 472.986 211.478 472 210L470 210z"/>
<path style="fill:#930054; stroke:none;" d="M180 211L181 212L180 211M212.667 211.333C212.222 211.778 213.278 211.722 213.333 211.667C213.778 211.222 212.722 211.278 212.667 211.333M221 213C222.58 212.316 222.777 212.195 224 211C221.908 211.406 221.98 211.217 221 213M230 211L230 214C231.797 214 231.521 213.986 233 213C231.777 211.805 231.58 211.684 230 211M239 211C240.223 212.195 240.42 212.316 242 213C241.02 211.217 241.092 211.406 239 211M365 211L365 213L368 213L368 211L365 211M398 222C404.702 219.902 410.144 222.855 414 215L410 215L410 211C404.408 212.88 398.28 215.437 398 222z"/>
<path style="fill:#930054; stroke:none;" d="M374.667 212.333C374.222 212.778 375.278 212.722 375.333 212.667C375.778 212.222 374.722 212.278 374.667 212.333z"/>
<path style="fill:#930054; stroke:none;" d="M448.603 215.157C446.87 216.315 448.664 219.001 450.397 217.843C452.13 216.686 450.336 213.998 448.603 215.157M430 215C431.324 217.071 431.547 217.139 434 217C432.457 215.733 431.952 215.511 430 215M457 215L457 219C459.627 218.161 460.161 217.626 461 215L457 215M475 215L475 218L479 218L479 215L475 215M217.333 216.667C217.278 216.722 217.222 217.778 217.667 217.333C217.722 217.278 217.778 216.222 217.333 216.667M226 216L226 218L228 218L228 216L226 216M244 216L244 218L246 218L246 216L244 216M371.667 216.333C371.222 216.778 372.278 216.722 372.333 216.667C372.778 216.222 371.722 216.278 371.667 216.333M395 216L395 218C396.635 217.455 396.455 217.635 397 216L395 216z"/>
<path style="fill:#930054; stroke:none;" d="M434 219C434.839 221.626 435.374 222.161 438 223L438 219L434 219M443 219L444 223L446 223L447 222L447 220L443 219M453 219L452 220C452 221.797 452.014 221.521 453 223L455 223L456 220C454.521 219.014 454.797 219 453 219M221 220L221 222L223 222L223 220L221 220M231.333 220.667C231.278 220.722 231.222 221.778 231.667 221.333C231.722 221.278 231.778 220.222 231.333 220.667M240.333 220.667C240.278 220.722 240.222 221.778 240.667 221.333C240.722 221.278 240.778 220.222 240.333 220.667M267.333 220.667C267.278 220.722 267.222 221.778 267.667 221.333C267.722 221.278 267.778 220.222 267.333 220.667M348 223C350.124 222.101 350.101 222.124 351 220C348.636 220.482 348.482 220.636 348 223M366 220L365 221C366.223 222.195 366.42 222.316 368 223C367.316 221.42 367.195 221.223 366 220M383 220L383 222L385 222L385 220L383 220M461 220C461.899 222.124 461.876 222.101 464 223C463.518 220.636 463.364 220.482 461 220M471 220L471 222L473 222L473 220L471 220M258.667 221.333C258.222 221.778 259.278 221.722 259.333 221.667C259.778 221.222 258.722 221.278 258.667 221.333M330.667 221.333C330.222 221.778 331.278 221.722 331.333 221.667C331.778 221.222 330.722 221.278 330.667 221.333M340 221L340 223C341.635 222.455 341.455 222.635 342 221L340 221M357.667 221.333C357.222 221.778 358.278 221.722 358.333 221.667C358.778 221.222 357.722 221.278 357.667 221.333M375.667 221.333C375.222 221.778 376.278 221.722 376.333 221.667C376.778 221.222 375.722 221.278 375.667 221.333M244 224L244 226L246 226L246 224L244 224M289 224L289 226L291 226L291 224L289 224M360 224C360.578 226.697 361.261 226.789 364 227C362.774 224.965 362.297 224.674 360 224M369 225L370 228L374 227L374 225C371.968 224.677 371.018 224.66 369 225M411 229C414.552 230.589 418.132 232.439 422 233L425 241C421.759 241.458 419.094 243.006 416 244C413.217 238.483 408.847 238.62 404.004 241.928C397.512 246.362 393.572 253.543 386 256L386 258C388.377 258.572 390.558 258.89 393 259C394.83 255.592 397.49 253.583 401 252L401 256C397.847 256.968 395.768 259.22 393 261L394 264L396 264L397 260C400.066 259.503 401.032 258.964 402 256C404.689 256.418 405.554 256.717 407 259L411 258C409.703 256.08 409.209 255.684 407 255L411 252C411.98 253.783 411.908 253.594 414 254C417.434 249.878 421.893 250.739 425.981 247.721C430.424 244.441 429.526 241.415 431.602 237.053C433.096 233.913 435.944 232.403 437 229L433 229L433 232L429 232C430.15 229.981 431.015 229.277 433 228L433 226C424.914 224.444 418.004 224.02 411 229M439 224C439 225.797 439.014 225.521 440 227C441.195 225.777 441.316 225.58 442 224L439 224M448 227C450.124 226.101 450.101 226.124 451 224C448.636 224.482 448.482 224.636 448 227M458 224C457.014 225.479 457 225.203 457 227C458.58 226.317 458.777 226.195 460 225L458 224M299.667 225.333C299.222 225.778 300.278 225.722 300.333 225.667C300.778 225.222 299.722 225.278 299.667 225.333M308 225L308 227C309.635 226.455 309.455 226.635 310 225L308 225M317 225L317 227L319 227L319 225L317 225M344 225L344 227L346 227L346 225L344 225M353 225L352 229C353.878 228.824 355.199 228.562 357 228L357 226L353 225M379 225L379 227L381 227L381 225L379 225M235.667 226.333C235.222 226.778 236.278 226.722 236.333 226.667C236.778 226.222 235.722 226.278 235.667 226.333M506 228L506 232L502 232C503 236.623 505.495 237.587 510 238C508.33 240.389 507.406 242.115 507 245L511 244C512.819 245.941 513.695 245.08 515 243L511 243C511.89 241.255 512.453 239.875 513 238C510.57 236.818 508.687 236.27 506 236C506.823 233.288 507.567 232.462 510 231L510 235C513.366 232.827 511.757 230.452 511 227L506 228M365 229L366 232L368 232L369 231L369 229L368 228C366.203 228 366.479 228.014 365 229M462 228L462 232C463.797 232 463.521 231.986 465 231L465 229L464 228L462 228M303.667 229.333C303.222 229.778 304.278 229.722 304.333 229.667C304.778 229.222 303.722 229.278 303.667 229.333M321 229L321 231L324 231L324 229L321 229M339 229L339 231L341 231L341 229L339 229M348 229L348 231L350 231L350 229L348 229M357 229L357 232C358.797 232 358.521 231.986 360 231C358.777 229.805 358.58 229.684 357 229M375.333 229.667C375.278 229.722 375.222 230.778 375.667 230.333C375.722 230.278 375.778 229.222 375.333 229.667M444 229L444 231L446 231L446 229L444 229M453 229L453 232L455 232L455 229L453 229M330 230L330 232L332 232L332 230L330 230z"/>
<path style="fill:#930054; stroke:none;" d="M197 241C200.066 240.503 201.032 239.964 202 237C203.985 238.277 204.85 238.981 206 241L210 241L209 245L207 245C207 243.203 206.986 243.478 206 242C202.926 243.335 200.248 245.126 197 246C197.176 247.878 197.438 249.199 198 251L206 246C206.819 249.822 209.604 249.145 211 246C213.357 247.104 214.376 247.956 216 250C220.718 248.664 224.248 249.702 229 250L229 246C234.965 249.27 240.812 255.92 240 263C242.884 264.795 243.688 267.844 247 269C244.728 277.031 235.837 279.549 238 289C235.947 287.906 233.353 284.618 230.967 284.635C227.955 284.657 227.624 289.855 227 292C229.092 291.594 229.02 291.783 230 290L232 290C233.465 292.122 234.457 292.474 237 293C238.462 290.567 239.288 289.823 242 289L240 283L244 283L245 279L251 282C252.481 280.402 253.062 279.892 255 279C254.146 281.38 253.334 283.488 253 286C255.512 285.666 257.62 284.854 260 284C257.468 289.686 251.241 292.979 246 296C247.223 297.195 247.42 297.316 249 298L249 301C247.125 301.547 245.745 302.11 244 303C243.951 305.461 243.566 307.601 243 310C247.099 309.271 250.037 310.401 253.949 310.252C257.153 310.129 258.738 308.99 262 310C263.218 307.882 263.867 307.155 266 306C266.36 300.747 268.547 297.483 274 297C275.155 294.867 275.882 294.218 278 293L278 297C274.819 298.139 273.325 300.967 270 302C271.073 305.248 273.284 307.759 270 310C271.279 314.051 274.949 317.721 279 319L279 323C284.067 321.443 286.355 316.537 290 313L289 310C299.96 308.324 298.052 296.507 294 289L298 287C294.808 280.466 287.334 274.065 282 269C284.702 264.241 280.555 261.845 275.997 261.295C270.07 260.58 263.514 267.28 261 259L256 259C256.957 257.484 257.387 256.661 258 255C255.908 255.406 255.98 255.217 255 257C253.32 255.39 252.218 253.986 251 252L256 253C254.694 250.601 253.28 248.697 251 251L247 248C248.686 248.218 249.316 248.224 251 248C249.771 246.13 249.132 245.776 247 245L247 248C244.316 246.645 241.953 245.564 239 245L239 242L243 241L243 239C231.569 233.909 221.223 231.71 209 234.688C203.948 235.919 199.923 236.186 197 241M448 236L452 235C449.852 233.668 449.394 233.904 448 236M457 233C457.683 235.525 458.929 237.618 460 240C457.165 237.817 455.607 236.467 452 237C453.281 239.471 454.32 240.256 457 241C457.021 246.823 458.974 250.677 461 256L464 256L468 247C465.636 247.482 465.482 247.636 465 250C459.434 249.081 460.542 245.687 461 241C463.782 240.188 464.627 239.547 466 237L461 237C460.146 234.475 459.492 233.97 457 233M467 233C466.014 234.479 466 234.203 466 236L469 236C468.316 234.42 468.195 234.223 467 233z"/>
<path style="fill:#930054; stroke:none;" d="M353.667 235.333C353.222 235.778 354.278 235.722 354.333 235.667C354.778 235.222 353.722 235.278 353.667 235.333M514 235L514 237L516 237L516 235L514 235M416 236L415 237L415 239L416 240L418 240L419 239L419 237L418 236L416 236z"/>
<path style="fill:#930054; stroke:none;" d="M516 240L516 242L518 242L518 240L516 240M466 241L466 243L468 243L468 241L466 241M194 242L193 246L197 245L197 243L196 242L194 242M243 242C243.899 244.124 243.876 244.101 246 245C245.518 242.636 245.364 242.482 243 242M188 246C189.924 244.999 190.098 244.922 191 243C188.876 243.899 188.899 243.876 188 246M501 245C503.092 244.594 503.02 244.783 504 243C502.42 243.684 502.223 243.805 501 245M461.667 246.333C461.222 246.778 462.278 246.722 462.333 246.667C462.778 246.222 461.722 246.278 461.667 246.333M479 247C480.297 248.92 480.791 249.316 483 250L483 246L479 247M488 246C488.899 248.124 488.876 248.101 491 249C490.518 246.636 490.364 246.482 488 246M492 253L493 254L495 254C496.737 251.367 498.088 250.212 501 249L501 253L505 252L505 250C503.014 248.782 501.61 247.68 500 246C496.212 247.539 493.507 249.11 492 253M167 269C162.536 271.597 161.314 277.065 161 282L166 283C164.783 286.622 157.841 292.951 161 296C159.332 298.431 156.95 300.889 156.613 303.95C156.288 306.899 158.35 309.245 158.954 312.015C160.575 319.448 160.235 330.115 169 333C169.452 339.014 172.911 343.306 179 344C178.014 345.479 178 345.203 178 347L182 347L182 351C179.88 349.838 178.635 348.795 177 347C170.015 349.685 163.084 340.056 156 339C157.223 337.805 157.42 337.684 159 337C157.771 335.13 157.132 334.776 155 334C153.457 335.267 152.952 335.489 151 336L154 331C151.67 331.315 150.082 331.902 148 333L149 329C145.289 326.876 142.246 323.684 138 323L138 319L141 319L141 315L137 315C138.142 308.006 130.95 304.015 125 302C126.226 304.035 126.703 304.326 129 305L129 310C131.249 311.154 131.846 311.751 133 314C130.115 314.839 129.711 316.115 129 319L134 319L133 323L139 325C137.521 325.986 137.797 326 136 326C136.644 328.934 137.561 331.365 139 334C136.304 332.941 133.811 331.701 131 331C132.451 333.477 133.139 333.896 136 334L137 338L142 337L142 342C140.269 342.578 138.511 344.231 136.739 344.482C132.926 345.023 127.717 341.063 124 340C126.624 344.783 132.287 345.512 135 350L140 350L139 354C143.519 352.774 146.288 351.17 149 356L154 355C155.146 358.601 158.302 360.663 160 364C154.03 361.762 148.268 359.399 142 358C145.253 363.737 149.707 362.854 154.806 365.194C157.291 366.336 158.21 368.288 161 369C157.948 376.447 154.285 373.81 148 372C148.608 374.851 149.985 374.202 151.583 376.333C153.951 379.49 150.988 382.047 156 383L156 387L151 387C148.667 380.201 138.593 375.794 134 370C138.266 370.307 141.811 372.403 146 373C143.165 368.093 136.948 367.252 132 365.127C124.387 361.858 117.923 357.797 112 352L116 353C112.458 347.457 105.524 341.436 100 338L99 343C100.984 345.182 100.845 346.187 100 349L104 347L103 351C105.927 352.853 106.546 355.862 110 357L110 361L107 361L107 365C104.11 365.166 102.707 365.367 101 363C97.5701 363.679 94.9347 363.98 93 367L99 368L97 374C99.364 373.518 99.5175 373.364 100 371C101.767 371.955 102.607 372.566 104 374C99.2416 375.041 102.892 377.765 106 378L106 375L110 375L110 378C113.456 378.718 114.929 379.598 116 383L120 383C119.177 385.712 118.433 386.538 116 388C115.423 384.526 114.474 383.577 111 383C110.032 380.036 109.066 379.497 106 379C104.846 381.249 104.249 381.846 102 383L102 379L98 379C96.2231 382.015 94.7769 382.015 93 379L97 378L97 376C94.606 374.863 93.3739 374.23 92 372L89 372L89 375L83 373L84 379C81.8764 379.899 81.8993 379.876 81 382C83.7509 381.553 85.5389 380.212 88 379L88 383L85 383L85 388C82.2614 388.211 81.578 388.303 81 391C83.2974 390.326 83.7741 390.035 85 388C87.8863 389.151 89.5203 390.258 91 393L86 391C86.8629 394.065 87.9355 395.137 91 396C92.1034 394.543 92.5434 394.103 94 393L92 398L97 397L97 401C93.1935 402.079 93.1934 404.921 97 406L97 410L104 410C101.847 412.676 99.0782 414.731 98 418C100.724 417.818 102.583 417.265 105 416C104.022 418.756 102.599 420.881 105 423C105 421.203 104.986 421.478 104 420L110 420L110 424L120 427L120 424L124 424L124 428L121 428L121 432L124 432L124 437L120 437L120 433L115 433C114.146 430.475 113.492 429.97 111 429C109.519 430.598 108.938 431.108 107 432C106.346 428.946 104.993 429.064 102 429C103.006 432.186 105.479 434.062 107 437L111 437C112.657 442.034 115.37 439.783 119 438L118 443L125 442C125.824 447.087 129.111 448.671 134 449L134 446L138 446L138 442L134 442L134 438C137.034 438.462 139.147 440.109 142 441L142 437C145.066 436.503 146.032 435.964 147 433L152 433L152 436C155.141 436.815 157.771 438.5 161 439L161 443L165 442C164.349 444.434 163.84 445.283 162 447L162 449L166 450C167.848 446.643 170.599 443.763 174 442C175.127 444.841 175.987 445.492 179 446L179 443C181.582 443.775 183.103 444.306 182 447C186.469 448.875 192.191 448 197 448C207.567 448 218.581 448.934 229 447L229 442L234 442L234 446C236.492 445.03 237.146 444.525 238 442L234 442C234.812 439.218 235.453 438.373 238 437L238 433L243 433L244 437L246 437L247 433L243 433C242.503 429.934 241.964 428.968 239 428L239 424L243 424L243 420C240.007 420.064 238.654 419.946 238 423L234 422L234 420C236.481 418.983 237.264 418.562 238 416L230 418C230.899 415.876 230.876 415.899 233 415L233 411L229 411L229 406L233 406L233 410C236.066 409.503 237.032 408.964 238 406L234 406L234 401L238 401L238 405L242 405L242 401L238 401C237.032 398.036 236.066 397.497 233 397L233 393L229 393C227.23 387.033 219.909 383.437 215 380C213.584 380.472 213.186 380.814 212 382L211 381C211.957 379.483 212.387 378.661 213 377C210.367 375.263 209.212 373.912 208 371L204 372L205 368C199.911 368.262 196.885 364.578 192 365L193 361L198 361C198.771 364.82 200.851 365.198 203 362C207.682 370.712 224.636 374.781 234 375C231.57 370.547 226.834 369.482 222 369C225.475 365.763 231.437 364.736 235 368L237 368C240.426 364.815 242.774 365.696 247 367L247 363C240.775 361.262 235.078 356.666 229 354.158C216.683 349.076 203.679 350.511 197 337L200 337L200 334C197.488 334.334 195.38 335.146 193 336L193 332L189 332C191.144 327.772 194.765 324.7 196 320C192.074 321.827 190.217 323.841 187 320C178.801 320.747 173.094 316.877 169 310C171.481 308.983 172.264 308.561 173 306C171.203 306 171.479 306.014 170 307C170.017 302.862 171.343 301.395 173 298L168 299C170.607 293.965 168.332 292.465 166 288C169.164 288.231 170.376 289.719 173 291L170 283C172.841 281.873 173.492 281.013 174 278L170 277L170 275L174 274C173.134 271.328 171.295 269.477 170 267C173.71 266.393 176.402 263.988 180 263C179.37 255.375 182.913 253.231 186 247C179.208 248.902 176.098 254.371 171.792 259.41C169.004 262.674 166.298 264.508 167 269M506 247L506 249L508 249L508 247L506 247M190 248L190 250L192 250L192 248L190 248M510 249L509 253L513 252L513 250L512 249L510 249M483 253C484.878 252.824 486.199 252.562 488 252C485.587 250.338 484.608 250.556 483 253M186 251L186 254L188 254L188 251L186 251M193 254C195.132 253.224 195.771 252.87 197 251C194.703 251.674 194.226 251.965 193 254M230 251C230.899 253.124 230.876 253.101 233 254C232.518 251.636 232.364 251.482 230 251M425 253L425 255L427 255L427 253L425 253M488 256L492 256C490.42 253.854 489.538 253.83 488 256M481 254L481 256L483 256L483 254L481 254M496 257C498.739 256.789 499.422 256.697 500 254C497.703 254.674 497.226 254.965 496 257M506 254L506 256L508 256L508 254L506 254M182 256C182.482 258.364 182.636 258.518 185 259C185 257.203 184.986 257.478 184 256L182 256M517 256L517 258L519 258L519 256L517 256M200 257C200.508 260.013 201.159 260.873 204 262C203.188 259.218 202.547 258.373 200 257M235 257L235 259L237 259L237 257L235 257M457 257L457 259L460 259L460 257L457 257M465 257L465 259L467 259L467 257L465 257M484 258C485.223 259.195 485.42 259.316 487 260L487 257C485.203 257 485.479 257.014 484 258M493 258C493.899 260.124 493.876 260.101 496 261C495.518 258.636 495.364 258.482 493 258M194 259C192.001 261.569 189.954 262.673 187 264L190 270L184 265L184 270L180 269L179 270C179.97 272.492 180.475 273.146 183 274L182 278L178 277L178 283L174 283C175.037 286.108 177.524 288.076 179 291C177.125 291.547 175.745 292.11 174 293L174 295C175.801 295.562 177.122 295.824 179 296C179.263 299.41 179.679 300.901 183 302L183 305L180 305C180.918 309.321 183.776 312.628 188 314L187 310L192 310L192 314L197 314L198 319L200 319C201.975 315.825 205.119 314.088 207 311L202 311C201.676 304.842 201.574 298.968 200 293L206 295C205.02 293.217 205.092 293.406 203 293L203 289C204.939 289.892 205.519 290.402 207 292C209.492 291.03 210.146 290.525 211 288C214.758 289.67 218.229 292.026 220 287C215.801 285.453 214.899 283.399 218 280C216.468 276.165 215.263 273.706 211 273L214 269C210.447 264.417 207.52 263.442 202 265L202 269C198.243 269.058 194.716 268.376 191 268C192.916 264.407 196.444 263.385 196 259L194 259M502.333 259.667C502.278 259.722 502.222 260.778 502.667 260.333C502.722 260.278 502.778 259.222 502.333 259.667M402 263L406 262C403.852 260.668 403.394 260.904 402 263M461 260L461 264L465 264L465 260L461 260M488 260L488 264C490.627 263.161 491.161 262.626 492 260L488 260M480 264C482.297 263.326 482.774 263.035 484 261C481.703 261.674 481.226 261.965 480 264M512 261L512 263L514 263L514 261L512 261M522 261L523 262L522 261M380 268L384 268L387 262C383.439 263.008 381.626 264.688 380 268M197 264C198.223 265.195 198.42 265.316 200 266C199.02 264.217 199.092 264.406 197 264M399 265C398.014 266.479 398 266.203 398 268C399.58 267.316 399.777 267.195 401 266L399 265M466 265L466 268L468 268L468 265L466 265M484 265L484 269C486.035 267.774 486.326 267.297 487 265L484 265M492 266L492 268L496 269L496 265L492 266M517 265L517 267L519 267L519 265L517 265z"/>
<path style="fill:#930054; stroke:none;" d="M388.667 266.333C388.222 266.778 389.278 266.722 389.333 266.667C389.778 266.222 388.722 266.278 388.667 266.333M457 266L457 268L460 268L460 266L457 266M477.333 266.667C477.278 266.722 477.222 267.778 477.667 267.333C477.722 267.278 477.778 266.222 477.333 266.667M508.667 266.333C508.222 266.778 509.278 266.722 509.333 266.667C509.778 266.222 508.722 266.278 508.667 266.333z"/>
<path style="fill:#930054; stroke:none;" d="M325 274C328.192 274.933 329.386 276.098 331 279L328 280L328 282C332.648 283.737 337.035 284.694 340 280L334 279C334.452 276.589 334.773 275.651 333 274L334 269C329.564 269.144 327.056 269.924 325 274M385 269L384 270L384 272L388 273L387 269L385 269M394 269L393 273L397 272L397 270L396 269L394 269M461 269L462 273L464 273L465 270L461 269M511 269C511 270.797 511.014 270.521 512 272C513.195 270.777 513.316 270.58 514 269L511 269M454 270L454 272L456 272L456 270L454 270M489 273C491.124 272.101 491.101 272.124 492 270C489.636 270.482 489.482 270.636 489 273M498 270L497 271L497 273C499.364 272.518 499.518 272.364 500 270L498 270z"/>
<path style="fill:#930054; stroke:none;" d="M508 272L507 274L509 274C509 272.147 509.3 272.65 508 272M389 273L389 277L393 277L392 273L389 273z"/>
<path style="fill:#930054; stroke:none;" d="M458 274L458 276L460 276L460 274L458 274M397 275L397 277L400 277L400 275L397 275M476 275L476 277L478 277L478 275L476 275M485 275L485 277L487 277L487 275L485 275M503.667 275.333C503.222 275.778 504.278 275.722 504.333 275.667C504.778 275.222 503.722 275.278 503.667 275.333z"/>
<path style="fill:#930054; stroke:none;" d="M221 278C221.857 282.922 225.559 283.139 228 279L224 280C223.02 278.217 223.092 278.406 221 278M394 278L393 282L397 281C398.078 284.339 399.662 285.103 403 286L402 282C403.783 281.02 403.594 281.092 404 279C401.488 279.334 399.38 280.146 397 281C397 279.203 396.986 279.479 396 278L394 278z"/>
<path style="fill:#930054; stroke:none;" d="M462.667 279.333C462.222 279.778 463.278 279.722 463.333 279.667C463.778 279.222 462.722 279.278 462.667 279.333z"/>
<path style="fill:#930054; stroke:none;" d="M416 282C412.821 283.544 411.585 284.464 411 288C414.455 287.253 416.762 285.788 416 282z"/>
<path style="fill:#930054; stroke:none;" d="M380 284L380 286L382 286L382 284L380 284M461 285C460.014 286.478 460 286.203 460 288C451.66 286.912 452.37 295.063 450.573 300.961C449.385 304.863 445.691 308.126 450 311L450 313C442.194 315.829 443.679 324.631 437 328C434.921 335.34 426.419 338.323 428 347C422.228 348.369 417.714 356.566 413.454 360.847C406.427 367.908 394.944 374.876 385.741 378.611C381.208 380.451 372.479 379.789 371 385C366.041 384.244 360.895 386.825 360 392C358.365 391.455 358.545 391.635 358 390C357.221 391.769 357.088 393.036 357 395C351.723 395.121 346.095 395.407 341.17 397.545C338.602 398.659 336.736 400.79 333.985 401.571C330.423 402.582 326.661 401.775 323.09 402.443C321.165 402.803 319.699 404.127 317.83 404.59C312.921 405.807 307.025 405.172 302 405.119C295.845 405.054 290.107 406.13 284 405C285.548 406.667 286.901 408.021 288 410C285.982 409.66 285.032 409.677 283 410L283 406C276.795 404.848 270.248 403.622 264 403C263.146 405.38 262.334 407.488 262 410C264.364 409.518 264.518 409.364 265 407L269 407C268.101 409.124 268.124 409.101 266 410L266 414L270 414L270 410L274 410C275.383 407.683 276.487 407.037 279 406L279 410L275 410L275 414L279 414L279 410L283 410L283 415L280 415L280 419L283 419L283 415C286.995 416.942 285.547 417.792 284 421C287.183 420.789 289.919 419.687 293 419L293 422C295.724 421.818 297.583 421.265 300 420C300.17 425.037 303.989 428.249 305.362 433C306.714 437.679 306 443.173 306 448C314.049 448 323.069 446.855 331 448.263C335.107 448.992 338.91 452.894 343 452.88C347.446 452.866 351.337 448.563 356 448.105C363.808 447.338 371.468 449.774 379 449.416C388.001 448.988 397.122 447.13 406 446L406 442L411 442C410.582 444.689 410.283 445.554 408 447C412.475 448.447 417.213 447.831 421.83 447.906C428.155 448.009 434.663 448.491 441 447C442.959 450.271 446.551 451.771 448.656 455.044C451.54 459.529 451 464.908 451 470C459.553 465.588 455.054 456.374 463.015 450.92C467.114 448.111 471.213 448.004 476 448C479.317 447.997 482.724 448.605 485 446L487 446C491.76 451.431 500.22 441.84 501 437C504.869 436.835 507.303 434.049 511 433C511.674 435.297 511.965 435.774 514 437L514 433L511 433L511 428C513.297 427.326 513.774 427.035 515 425C511.225 425.533 508.341 427.959 504.664 428.697C499.178 429.797 490.753 426.354 487 432L484 432C482.554 429.717 481.689 429.418 479 429C477.845 431.133 477.118 431.782 475 433L474 432L474 430L478 429L478 424L474 424L474 420L470 420C467.047 426.044 461.958 418.998 461 415C464.013 414.492 464.873 413.841 466 411L470 412C468.519 413.598 467.939 414.108 466 415L466 419C467.853 418.402 470.109 416.168 472 416.168C474.217 416.168 476.604 418.599 479 419L479 415C485.523 413.949 493.957 403.623 497 398C495.199 397.438 493.878 397.176 492 397C494.034 393.389 496.51 391.297 497 387C499.626 386.161 500.161 385.626 501 383L497 383L496 379L500 377C498.884 373.795 498.704 372.593 501 370C498.58 369.327 496.464 370.456 494 371L497 366C495.199 365.438 493.878 365.176 492 365L492 360C489.374 360.839 488.839 361.374 488 364L483 364L483 360C484.878 359.824 486.199 359.562 488 359L488 357C484.863 356.506 484 356.964 483 360L479 360L482 352C479.695 352.667 478.035 353.703 476 355L479 346L476 347L475 346L475 344L483 338C486.07 342.609 489.93 336.391 493 341C494.797 341 494.522 340.986 496 340L494 334C496.124 334.899 496.101 334.876 497 337C499.627 336.161 500.161 335.626 501 333L497 333L497 329C500.127 328.066 501.066 327.127 502 324L497 324L497 320C499.782 319.188 500.627 318.547 502 316C492.754 313.294 487.487 319.623 481 325C481.515 330.429 479.02 332.321 477 337L475 337L474 333C470.987 333.508 470.127 334.159 469 337C466.751 335.846 466.154 335.249 465 333C468.174 332.059 469.67 330.279 472 328C470.109 323.058 470.631 315.925 466 313C467.327 309.797 468.075 307.893 466 305C467.975 302.985 469.165 301.666 470 299C465.355 299.312 462.528 301.032 459 304C459.505 301.146 460.227 299.02 458 297C459.166 294.26 459.81 291.972 460 289L464 288L464 286L463 285L461 285M344.667 286.333C344.222 286.778 345.278 286.722 345.333 286.667C345.778 286.222 344.722 286.278 344.667 286.333M404 287C404.719 294.628 398.983 294.814 397 301C403.759 300.248 410.761 296.18 411 289C408.461 288.676 406.382 287.918 404 287M361 288L361 291C342.581 289.559 327.332 299.97 312.996 310.7C303.293 317.963 297.42 327.35 284 325C285.119 328.881 287.087 331.761 291 333C289.598 336.133 288.256 338.513 288 342L292 342L292 347L287 346L287 342C283.43 343.192 281.456 346.16 279 342L283 341L283 339L282 338L280 338C278.243 339.733 277.358 340.341 275 341C276.82 337.545 279.512 334.76 283 333C283.578 335.698 284.261 335.789 287 336C285.774 333.965 285.297 333.674 283 333L283 328L279 328C278.824 326.122 278.562 324.801 278 323C275.277 324.961 275.107 326.699 275 330L271 329C270.65 332.173 271.819 334.076 273 337C269.543 338.81 267.938 341.228 267 345L273 343C271.902 345.082 271.315 346.67 271 349C278.599 348.279 287.053 354.652 291 361C288.623 360.428 286.442 360.109 284 360L284 365C287.555 366.771 290.229 369.445 292 373L288 373L287 369L285 369C283.287 371.761 282.113 373.054 279 374C280.226 376.035 280.703 376.326 283 377C284.226 374.965 284.703 374.674 287 374L287 379C293.819 380.838 299.763 382.429 307 383C301.561 385.209 295.637 383.921 290 383.205C278.794 381.781 268.188 378.934 257 378C261.872 382.045 269.055 382.82 275 384.674C278.954 385.907 282.945 387.963 287 388.726C290.589 389.402 294.37 388.847 298 389.09C309.983 389.891 323.086 389.915 334.83 386.829C342.708 384.76 349.84 382.639 356.95 378.691C359.76 377.13 362.5 372.754 365 376C367.637 375.061 368.618 374.42 370 372L366 372L366 369C372.07 370.352 377.346 371.778 379 364C380.478 364.986 380.203 365 382 365C382.562 363.199 382.824 361.878 383 360C385.168 360.274 387.843 361.529 390 361.195C393.492 360.654 397.139 357.297 399.8 355.174C405.067 350.972 410.962 345.908 417 343C414.255 339.179 409.254 341.268 405 341L405 337C402.965 338.226 402.674 338.703 402 341C404.035 342.226 404.326 342.703 405 345L401 345L401 342L397 342C398.033 338.675 400.861 337.181 402 334L411 337L410 333C412.513 334.037 413.617 334.683 415 337C421.187 336.025 427.1 329.869 429 324L433 324C430.704 320.443 428.601 322.674 424.961 322.581C417.484 322.389 414.219 319.074 407 323L406 320L411 319L411 314C413.997 315.088 415.052 315.95 416 319C418.382 317.929 420.475 316.683 423 316C422.503 312.934 421.964 311.968 419 311L419 314L416 314C416.529 312.031 417.962 309.925 418.157 307.918C418.497 304.423 416.668 302.706 418 299L414 298C409.237 301.702 400.259 302.776 398 309C400.584 308.678 402.602 308.027 405 307C405 308.853 404.7 308.35 406 309C404.267 310.757 403.659 311.642 403 314C406.485 316.441 403.261 318.839 401 315L397 315C395.32 309.693 389.589 307.581 388 302L383 302C385.998 298.382 389.502 296.324 394 295C394 293.203 393.986 293.478 393 292C388.886 292.94 384.323 294.801 380.039 294.299C374.738 293.677 370.719 291.016 365 291L365 288L361 288M243 291L244 294C245.949 293.064 246.55 292.608 248 291C245.799 290.519 245.201 290.519 243 291M498 290L498 292L501 292L501 290L498 290M399 291L399 293L403 293L403 291L399 291z"/>
<path style="fill:#930054; stroke:none;" d="M212 292L212 294L214 294L214 292L212 292M221 292L221 294L224 294L224 292L221 292z"/>
<path style="fill:#930054; stroke:none;" d="M420 293L420 295C422.337 295.519 423.64 295.48 426 295L426 293C423.542 292.354 422.458 292.354 420 293M126 293C125.014 294.479 125 294.203 125 296C126.766 295.021 126.955 294.778 126 293M230 293L230 295L232 295L232 293L230 293M128.333 297.667C128.278 297.722 128.222 298.778 128.667 298.333C128.722 298.278 128.778 297.222 128.333 297.667z"/>
<path style="fill:#930054; stroke:none;" d="M425 297L425 300L428 300L428 297L425 297M77 298L77 300L79 300L79 298L77 298M229 301C229.627 303.936 230.147 305.013 233 306C232.064 307.948 231.608 308.55 230 310L230 312L246 318C245.086 315.106 243.041 312.881 242.008 309.981C240.87 306.79 241.242 300.883 237.525 299.283C235.002 298.197 231.481 300.391 229 301z"/>
<path style="fill:#930054; stroke:none;" d="M498 298L498 301L500 301L500 298L498 298M389.667 300.333C389.222 300.778 390.278 300.722 390.333 300.667C390.778 300.222 389.722 300.278 389.667 300.333z"/>
<path style="fill:#930054; stroke:none;" d="M393 301L393 304L397 303C395.457 301.733 394.952 301.511 393 301M80 302L80 304L83 304L83 302L80 302z"/>
<path style="fill:#930054; stroke:none;" d="M429 302L429 305L431 305L431 302L429 302M476 302L476 304C477.635 303.455 477.455 303.635 478 302L476 302M174 303L174 305L178 305L178 303L174 303z"/>
<path style="fill:#930054; stroke:none;" d="M563 305L562 309C564.096 307.606 564.332 307.148 563 305z"/>
<path style="fill:#930054; stroke:none;" d="M121 307L121 309L123 309L123 307L121 307z"/>
<path style="fill:#930054; stroke:none;" d="M426.333 307.667C426.278 307.722 426.222 308.778 426.667 308.333C426.722 308.278 426.778 307.222 426.333 307.667z"/>
<path style="fill:#930054; stroke:none;" d="M498 310C500.124 309.101 500.101 309.124 501 307C498.636 307.482 498.482 307.636 498 310M226 308L226 310L228 310L228 308L226 308M434 308L434 310L436 310L436 308L434 308M218 309C218.98 310.783 218.908 310.594 221 311L220 318C221.894 317.535 223.277 316.934 225 316L222 322C224.759 322.523 226.354 321.928 229 321L228 325L233 324C234.732 326.669 235.942 326.71 239 326C237.212 324.579 236.294 324.303 234 324L236 319L225 315L225 311L218 309M176 310C175.776 311.684 175.782 312.313 176 314C176.71 312.24 176.71 311.759 176 310z"/>
<path style="fill:#930054; stroke:none;" d="M431 310L430 314L434 313L434 311L433 310L431 310M126 314C128.124 313.101 128.101 313.124 129 311C126.636 311.482 126.482 311.636 126 314z"/>
<path style="fill:#930054; stroke:none;" d="M248 311L248 313L250 313L250 311L248 311z"/>
<path style="fill:#930054; stroke:none;" d="M493 311L493 313C494.635 312.455 494.455 312.635 495 311L493 311z"/>
<path style="fill:#930054; stroke:none;" d="M502 312L502 314L504 314L504 312L502 312M189 315L189 318L192 318L192 315L189 315z"/>
<path style="fill:#930054; stroke:none;" d="M258 319C260.124 318.101 260.101 318.124 261 316C258.636 316.482 258.482 316.636 258 319z"/>
<path style="fill:#930054; stroke:none;" d="M425.667 316.333C425.222 316.778 426.278 316.722 426.333 316.667C426.778 316.222 425.722 316.278 425.667 316.333M507.333 316.667C507.278 316.722 507.222 317.778 507.667 317.333C507.722 317.278 507.778 316.222 507.333 316.667M207 317L207 319C208.635 318.455 208.455 318.635 209 317L207 317M555.667 317.333C555.222 317.778 556.278 317.722 556.333 317.667C556.778 317.222 555.722 317.278 555.667 317.333M142 319L142 321L144 321L144 319L142 319z"/>
<path style="fill:#930054; stroke:none;" d="M254 320C255.56 324.7 259.654 323.997 264 324C261.116 321.696 257.61 320.744 254 320M271 320C271.482 322.364 271.636 322.518 274 323C274 321.203 273.986 321.478 273 320L271 320z"/>
<path style="fill:#930054; stroke:none;" d="M503 321L503 323L505 323L505 321L503 321M243 324C243.839 326.626 244.374 327.161 247 328C245.846 325.751 245.249 325.154 243 324z"/>
<path style="fill:#930054; stroke:none;" d="M113 325C114.45 326.608 115.051 327.064 117 328C116.422 325.303 115.739 325.211 113 325M198 325L198 327L200 327L200 325L198 325M265 325L265 327L268 327L268 325L265 325z"/>
<path style="fill:#930054; stroke:none;" d="M562 327L561 331C554.467 331.435 548.957 335.198 544.765 340.13C542.519 342.772 538.7 349.575 545.057 350.129C547.391 350.332 549.887 348.808 552 348L552 352C554.358 352.659 555.243 353.267 557 355L559 355C560.314 352.389 563.314 349.426 561 347C562.941 343.93 567.792 338.241 562 337C563.763 333.315 564.655 331.112 564 327L562 327M118 328C119.976 332.231 122.372 334.246 127 335C127.683 332.475 128.929 330.382 130 328C127.355 328.427 126.539 328.821 125 331L123 331C121.461 328.821 120.645 328.427 118 328M248 328L248 331L250 331L250 328L248 328M194 329L194 332L196 332L196 329L194 329M239 329C240.759 332.62 242.835 335.161 247 335C244.584 332.42 242.404 330.045 239 329z"/>
<path style="fill:#930054; stroke:none;" d="M502 332C504.297 331.326 504.774 331.035 506 329C503.703 329.674 503.226 329.965 502 332M205 334C207.278 334.156 208.098 334.156 210 333C212 334.63 213.502 335.338 216 336L217 332C212.232 330.914 208.03 329.216 205 334z"/>
<path style="fill:#930054; stroke:none;" d="M99.3333 332.667C99.2777 332.722 99.2223 333.778 99.6667 333.333C99.7221 333.278 99.7778 332.222 99.3333 332.667z"/>
<path style="fill:#930054; stroke:none;" d="M163 333L163 335L165 335L165 333L163 333M226 333L226 335L228 335L228 333L226 333z"/>
<path style="fill:#930054; stroke:none;" d="M85 334L85 337C86.7968 337 86.5215 336.986 88 336C86.7772 334.805 86.58 334.684 85 334M266 334C267.226 336.035 267.703 336.326 270 337C268.771 335.13 268.132 334.776 266 334z"/>
<path style="fill:#930054; stroke:none;" d="M127 336C128.226 338.035 128.703 338.326 131 339C130.422 336.303 129.739 336.211 127 336z"/>
<path style="fill:#930054; stroke:none;" d="M80.3333 338.667C80.2777 338.722 80.2223 339.778 80.6667 339.333C80.7222 339.278 80.7778 338.222 80.3333 338.667M120 338C120.98 339.783 120.908 339.594 123 340C121.777 338.805 121.58 338.684 120 338z"/>
<path style="fill:#930054; stroke:none;" d="M203 338L203 340L205 340L205 338L203 338M209 338L209 340L211 340L211 338L209 338M226 338C225.014 339.479 225 339.203 225 341L229 341C227.897 339.543 227.457 339.103 226 338M240 338L240 340L242 340L242 338L240 338z"/>
<path style="fill:#930054; stroke:none;" d="M134.667 340.333C134.222 340.778 135.278 340.722 135.333 340.667C135.778 340.222 134.722 340.278 134.667 340.333z"/>
<path style="fill:#930054; stroke:none;" d="M207 346C211.729 346.111 215.522 347.723 220 349C222.153 346.646 224.048 345.088 225 342C219.806 342.41 209.972 341.416 207 346z"/>
<path style="fill:#930054; stroke:none;" d="M85.3333 343.667C85.2777 343.722 85.2223 344.778 85.6667 344.333C85.7221 344.278 85.7778 343.222 85.3333 343.667z"/>
<path style="fill:#930054; stroke:none;" d="M480 343L480 346C481.797 346 481.522 345.986 483 345C481.777 343.805 481.58 343.684 480 343z"/>
<path style="fill:#930054; stroke:none;" d="M226.333 346.667C226.278 346.722 226.222 347.778 226.667 347.333C226.722 347.278 226.778 346.222 226.333 346.667z"/>
<path style="fill:#930054; stroke:none;" d="M125 347L124 352L125 353L129 353C128.014 354.479 128 354.203 128 356L129 357L133 356C133.547 357.875 134.11 359.255 135 361C137.061 359.012 137.579 357.843 138 355C133.389 352.824 129.611 349.176 125 347z"/>
<path style="fill:#930054; stroke:none;" d="M485 347C484.014 348.479 484 348.203 484 350L487 350C486.316 348.42 486.195 348.223 485 347M235 348C235.899 350.124 235.876 350.101 238 351C237.101 348.876 237.124 348.899 235 348M94 351C94.5451 352.635 94.3648 352.455 96 353L96 351L94 351M239 351L239 353L242 353L242 351L239 351z"/>
<path style="fill:#930054; stroke:none;" d="M538.667 351.333C538.222 351.778 539.278 351.722 539.333 351.667C539.778 351.222 538.722 351.278 538.667 351.333M253 352L253 354L255 354C254.455 352.365 254.635 352.545 253 352z"/>
<path style="fill:#930054; stroke:none;" d="M488 352C488.899 354.124 488.876 354.101 491 355C490.518 352.636 490.364 352.482 488 352z"/>
<path style="fill:#930054; stroke:none;" d="M263 353C264.675 355.221 266.257 355.562 269 356C267.365 353.455 266.007 353.221 263 353M144 354L144 356L146 356L146 354L144 354z"/>
<path style="fill:#930054; stroke:none;" d="M492 356C493.431 360.305 496.689 359.468 496 355L492 356M551 358C553.689 357.582 554.554 357.283 556 355C553.311 355.418 552.446 355.717 551 358z"/>
<path style="fill:#930054; stroke:none;" d="M270 356C271.772 358.682 273.228 358.682 275 356L270 356z"/>
<path style="fill:#930054; stroke:none;" d="M560.667 356.333C560.222 356.778 561.278 356.722 561.333 356.667C561.778 356.222 560.722 356.278 560.667 356.333M84 357L84 359L87 359L87 357L84 357M103 357L103 359L105 359L105 357L103 357z"/>
<path style="fill:#930054; stroke:none;" d="M279 357L279 359L282 359L282 357L279 357z"/>
<path style="fill:#930054; stroke:none;" d="M554 361C556.739 360.789 557.422 360.697 558 358C555.868 358.777 555.229 359.13 554 361M89 360L90 364C91.2396 362.19 91.1837 362.223 91 360L89 360z"/>
<path style="fill:#930054; stroke:none;" d="M498 360L497 361L497 363L498 364L500 364L501 363L501 361L500 360L498 360z"/>
<path style="fill:#930054; stroke:none;" d="M267 364C269.124 363.101 269.101 363.124 270 361C267.636 361.482 267.482 361.636 267 364z"/>
<path style="fill:#930054; stroke:none;" d="M507 361L507 363L509 363L509 361L507 361M516 361L516 363L518 363L518 361L516 361M549 362L549 364L550 365L552 365L553 362L552 361L549 362z"/>
<path style="fill:#930054; stroke:none;" d="M510 365L510 367L511 368L513 368L514 364L510 365z"/>
<path style="fill:#930054; stroke:none;" d="M271 365L270 369L274 369L273 365L271 365z"/>
<path style="fill:#930054; stroke:none;" d="M503 365L503 368L505 368L505 365L503 365M546 365C545.014 366.478 545 366.203 545 368C546.289 366.557 546.401 366.766 546 365M83 366L83 368L85 368L85 366L83 366z"/>
<path style="fill:#930054; stroke:none;" d="M253.667 366.333C253.222 366.778 254.278 366.722 254.333 366.667C254.778 366.222 253.722 366.278 253.667 366.333M262 366L262 369L265 369L265 366L262 366M280 366L280 369L283 369L283 366L280 366z"/>
<path style="fill:#930054; stroke:none;" d="M557 368L558 369C559.195 367.777 559.316 367.58 560 366C558.42 366.684 558.223 366.805 557 368M86 368L86 370L89 370L89 368L86 368z"/>
<path style="fill:#930054; stroke:none;" d="M154 370C154.899 372.124 154.876 372.101 157 373C156.518 370.636 156.364 370.482 154 370z"/>
<path style="fill:#930054; stroke:none;" d="M240 370L240 372L242 372L242 370L240 370M267 370C269.506 374.201 274.593 376.47 278 372C274.195 371.805 270.729 370.631 267 370z"/>
<path style="fill:#930054; stroke:none;" d="M516 370L516 372L518 372L518 370L516 370M80 371L80 373C81.6351 372.455 81.455 372.635 82 371L80 371M552 371L552 373L554 373L554 371L552 371M76 374C76.6836 375.58 76.8048 375.777 78 377L78 374L76 374z"/>
<path style="fill:#930054; stroke:none;" d="M411 374L411 378L415 378L415 374L411 374z"/>
<path style="fill:#930054; stroke:none;" d="M236.667 375.333C236.222 375.778 237.278 375.722 237.333 375.667C237.778 375.222 236.722 375.278 236.667 375.333M253 375L252 377L254 377C254 375.147 254.3 375.65 253 375M504 375C504.545 376.635 504.365 376.455 506 377L506 375L504 375M547 378C549.123 377.101 549.101 377.124 550 375C547.636 375.482 547.482 375.636 547 378z"/>
<path style="fill:#930054; stroke:none;" d="M79 377L79 379L81 379L81 377L79 377z"/>
<path style="fill:#930054; stroke:none;" d="M415 379L415 383C417.627 382.161 418.161 381.626 419 379L415 379M433 379L433 381L436 381L436 379L433 379z"/>
<path style="fill:#930054; stroke:none;" d="M502 383C504.124 382.101 504.101 382.124 505 380C502.636 380.482 502.482 380.636 502 383z"/>
<path style="fill:#930054; stroke:none;" d="M411 383C411.839 385.626 412.374 386.161 415 387C414.161 384.374 413.626 383.839 411 383z"/>
<path style="fill:#930054; stroke:none;" d="M420 386C421.58 385.316 421.777 385.195 423 384C421.42 384.684 421.223 384.805 420 386z"/>
<path style="fill:#930054; stroke:none;" d="M344 385L344 387L346 387L346 385L344 385z"/>
<path style="fill:#930054; stroke:none;" d="M416 388L416 390L418 390L418 388L416 388z"/>
<path style="fill:#930054; stroke:none;" d="M502 389L502 391L504 391L504 389L502 389z"/>
<path style="fill:#930054; stroke:none;" d="M412 395C413.58 394.316 413.777 394.195 415 393C412.908 393.406 412.98 393.217 412 395z"/>
<path style="fill:#930054; stroke:none;" d="M497 394C498.81 395.24 498.777 395.184 501 395C499.19 393.76 499.223 393.816 497 394z"/>
<path style="fill:#930054; stroke:none;" d="M188 397L188 400L192 400L192 397L188 397z"/>
<path style="fill:#930054; stroke:none;" d="M83 398L83 401L85 400C84.455 398.365 84.6351 398.545 83 398M89 398C89.8993 400.124 89.8764 400.101 92 401C91.1007 398.876 91.1236 398.899 89 398z"/>
<path style="fill:#930054; stroke:none;" d="M244 398L244 400L246 400L246 398L244 398z"/>
<path style="fill:#930054; stroke:none;" d="M502 400C503.58 399.316 503.777 399.195 505 398C502.908 398.406 502.98 398.217 502 400M253.667 400.333C253.222 400.778 254.278 400.722 254.333 400.667C254.778 400.222 253.722 400.278 253.667 400.333z"/>
<path style="fill:#930054; stroke:none;" d="M258 404C259.894 403.535 261.277 402.934 263 402C260.543 401.484 259.498 402.006 258 404z"/>
<path style="fill:#930054; stroke:none;" d="M498 401L497 402L497 404L501 405L500 401L498 401z"/>
<path style="fill:#930054; stroke:none;" d="M248 403L248 406L250 406L250 403L248 403M86 405L86 407L88 407L88 405L86 405z"/>
<path style="fill:#930054; stroke:none;" d="M493 407C494.223 408.195 494.42 408.316 496 409L496 406C494.203 406 494.479 406.014 493 407M503 406C502.598 407.943 502.598 408.056 503 410C504.267 408.457 504.489 407.952 505 406L503 406z"/>
<path style="fill:#930054; stroke:none;" d="M244 407L244 409L247 409L247 407L244 407M252 408C253.223 409.195 253.42 409.316 255 410L255 407C253.203 407 253.479 407.014 252 408M89 411C90.9225 410.098 90.9988 409.924 92 408C89.636 408.482 89.4825 408.636 89 411z"/>
<path style="fill:#930054; stroke:none;" d="M94 411L93 415L97 414L97 412L96 411L94 411z"/>
<path style="fill:#930054; stroke:none;" d="M239 414C241.124 413.101 241.101 413.124 242 411C239.636 411.482 239.482 411.636 239 414M248 412C249.223 413.195 249.42 413.316 251 414L251 411C249.203 411 249.479 411.014 248 412M257 414C259.297 413.326 259.774 413.035 261 411C258.261 411.211 257.578 411.303 257 414z"/>
<path style="fill:#930054; stroke:none;" d="M498 411C498.684 412.58 498.805 412.777 500 414L501 413L500 411L498 411M507.333 411.667C507.278 411.722 507.222 412.778 507.667 412.333C507.722 412.278 507.778 411.222 507.333 411.667z"/>
<path style="fill:#930054; stroke:none;" d="M262 415C262.482 417.364 262.636 417.518 265 418C265 416.203 264.986 416.478 264 415L262 415M270 415L270 418L274 418L274 415L270 415z"/>
<path style="fill:#930054; stroke:none;" d="M484 415L483 416L483 418C485.364 417.518 485.518 417.364 486 415L484 415z"/>
<path style="fill:#930054; stroke:none;" d="M244 416L244 418L246 418L246 416L244 416M253 416L253 418L255 418L255 416L253 416z"/>
<path style="fill:#930054; stroke:none;" d="M503 416L503 418L505 418C504.455 416.365 504.635 416.545 503 416M530 416L529 417C530.223 418.195 530.42 418.316 532 419C531.316 417.42 531.195 417.223 530 416M94 419C94.8993 421.124 94.8764 421.101 97 422C96.5175 419.636 96.364 419.482 94 419z"/>
<path style="fill:#930054; stroke:none;" d="M266 419L266 423C267.797 423 267.521 422.986 269 422L269 420L268 419L266 419M275 419C276.314 420.618 276.877 420.693 279 421C277.457 419.733 276.952 419.511 275 419z"/>
<path style="fill:#930054; stroke:none;" d="M248 420C248.482 422.364 248.636 422.518 251 423C251 421.203 250.986 421.479 250 420L248 420M257 420L257 423L260 423L260 420L257 420z"/>
<path style="fill:#930054; stroke:none;" d="M479 420L479 423L483 423L483 420L479 420M498 420L498 423L501 423L501 420L498 420M525 420L524 421L524 423L525 424L527 424L528 423L528 421L527 420L525 420z"/>
<path style="fill:#930054; stroke:none;" d="M516 424C518.124 423.101 518.101 423.124 519 421C516.636 421.482 516.482 421.636 516 424M534 421C534.482 423.364 534.636 423.518 537 424C537 422.203 536.986 422.478 536 421L534 421M244 424L243 425L243 427L244 428L246 428L247 427L247 425L246 424L244 424M262 424L261 425L261 427C263.364 426.518 263.518 426.364 264 424L262 424z"/>
<path style="fill:#930054; stroke:none;" d="M520 425L521 428L523 428L524 427L524 425L523 424C521.203 424 521.479 424.014 520 425M107 425C107.899 427.124 107.876 427.101 110 428C109.518 425.636 109.364 425.482 107 425z"/>
<path style="fill:#930054; stroke:none;" d="M252 426C253.81 427.24 253.777 427.184 256 427C254.19 425.76 254.223 425.816 252 426z"/>
<path style="fill:#930054; stroke:none;" d="M484 428C486.124 427.101 486.101 427.124 487 425C484.636 425.482 484.482 425.636 484 428M529 425C529 426.797 529.014 426.521 530 428C531.924 426.999 532.099 426.922 533 425L529 425z"/>
<path style="fill:#930054; stroke:none;" d="M248 429L248 432L251 432L251 429L248 429M256 430L257 433L252 433C252.497 436.066 253.036 437.032 256 438L256 441C252.578 442.136 252.216 443.57 253 447L255 447L257 442L261 443L261 434L258 436L261 430C258.799 429.519 258.201 429.519 256 430z"/>
<path style="fill:#930054; stroke:none;" d="M416 429L416 433L419 433L419 429L416 429M425 429L425 433L429 433L429 429L425 429z"/>
<path style="fill:#930054; stroke:none;" d="M516 429L515 430L515 432L516 433L518 433L519 432L519 430L518 429L516 429M524 429C524 430.797 524.014 430.521 525 432L527 432C527.986 430.522 528 430.797 528 429L524 429z"/>
<path style="fill:#930054; stroke:none;" d="M179 430C180.226 432.035 180.703 432.326 183 433C182.422 430.303 181.739 430.211 179 430z"/>
<path style="fill:#930054; stroke:none;" d="M100 433L100 435L102 435L102 433L100 433z"/>
<path style="fill:#930054; stroke:none;" d="M273 433L273 509L283 509L283 520L334 520L334 509C336.626 508.998 341.112 509.746 342.972 507.397C344.624 505.31 343.999 501.469 344 499L344 480C343.999 477.531 344.624 473.69 342.972 471.603C341.112 469.254 336.626 470.002 334 470C333.998 467.107 334.651 462.857 332.397 460.603C329.97 458.178 325.101 459 322 459L294 459L294 433L273 433z"/>
<path style="fill:#930054; stroke:none;" d="M175 434L175 437L178 437L178 434L175 434z"/>
<path style="fill:#930054; stroke:none;" d="M520 434L520 436L523 436L523 434L520 434z"/>
<path style="fill:#930054; stroke:none;" d="M148 437L148 440L152 440L152 437L148 437z"/>
<path style="fill:#930054; stroke:none;" d="M239 438L238 439L238 441C240.364 440.518 240.518 440.364 241 438L239 438M248 439C249.223 440.195 249.42 440.316 251 441L251 438C249.203 438 249.479 438.014 248 439z"/>
<path style="fill:#930054; stroke:none;" d="M507 438L507 442C508.797 442 508.522 441.986 510 441L510 439L509 438L507 438z"/>
<path style="fill:#930054; stroke:none;" d="M516 439L516 441L518 441L518 439L516 439z"/>
<path style="fill:#930054; stroke:none;" d="M153 441L153 443L155 443L155 441L153 441z"/>
<path style="fill:#930054; stroke:none;" d="M143 442C143.578 444.697 144.261 444.789 147 445L146 442L143 442z"/>
<path style="fill:#930054; stroke:none;" d="M156 443C156.987 445.853 158.064 446.373 161 447C160.032 444.036 159.066 443.497 156 443M244 443C244.684 444.58 244.805 444.777 246 446L247 445L246 443L244 443z"/>
<path style="fill:#930054; stroke:none;" d="M502 443L502 446L506 445C504.457 443.733 503.952 443.511 502 443z"/>
<path style="fill:#930054; stroke:none;" d="M148 445C148.578 447.697 149.261 447.789 152 448C150.774 445.965 150.297 445.674 148 445M261 451L261 445C256.863 446.656 256.863 449.344 261 451M141 446L139 447C140.482 447.791 141.796 447.87 141 446M171 447L171 450L174 450L174 447L171 447M230 447C231.248 447.685 231.549 447.749 233 448C231.752 447.315 231.452 447.251 230 447M497 447C497 448.797 497.014 448.521 498 450L500 450C500.986 448.521 501 448.797 501 447L497 447M108 470L98 470L98 497C98 499.911 97.0884 504.947 99.0278 507.397C100.888 509.746 105.374 508.998 108 509L108 520L161 520L161 508L132 508C128.694 508 123.188 508.981 120.603 506.397C118.179 503.972 119 499.113 119 496L170 496L170 479C169.995 476.763 170.468 473.493 168.972 471.603C166.963 469.065 162.886 470.68 160.603 468.397C158.168 465.961 160.069 461.27 156.682 459.603C153.782 458.177 149.142 459 146 459L121 459C117.878 459 112.221 457.954 109.603 460.028C107.085 462.023 108 467.181 108 470M179 520L195 520L195 472L207 472L207 521L229 521L229 472L241 472L241 520L263 520L263 485C263 481.468 264.301 474.544 261.972 471.603C260.112 469.254 255.626 470.002 253 470C252.997 466.496 253.776 461.317 249.852 459.603C245.55 457.725 238.621 459 234 459L197 459C192.875 459 184 457.338 180.603 460.028C177.4 462.565 179 471.368 179 475L179 520M383 470L375 470L375 460L353 460L353 501C353 505.653 351.514 513.436 353.603 517.682C354.479 519.461 356.213 519.777 358.019 519.941C361.733 520.279 372.431 521.676 374.397 517.682C375.823 514.783 375 510.142 375 507L375 484C384.569 483.993 385.999 481.226 386 472L411 472C411 468.855 412.047 463.223 409.972 460.603C408.594 458.864 405.981 459.042 403.999 459.005C399.363 458.917 388.378 457.038 384.603 460.028C382.085 462.023 383 467.181 383 470M418 460L418 496L427 496C427 499.242 426.03 504.684 428.179 507.397C430.292 510.064 436.03 509 439 509L468 509C468 512.323 468.981 517.812 466.397 520.397C463.812 522.981 458.306 522 455 522L427 522L427 534L464 534C467.731 534 475.302 535.423 478.397 532.972C480.915 530.977 480 525.819 480 523C482.626 522.998 487.112 523.746 488.972 521.397C491.662 517.999 490 509.126 490 505L490 460L468 460L468 496L449 496C446.341 495.995 442.674 496.467 440.603 494.397C438.348 492.141 439.001 487.886 439 485L439 460L418 460M509 460L509 470C506.374 470.002 501.888 469.254 500.028 471.603C498.376 473.69 499.001 477.531 499 480L499 499C499.001 501.469 498.376 505.31 500.028 507.397C501.888 509.746 506.374 508.998 509 509C509 511.819 508.085 516.977 510.603 518.972C513.052 520.912 518.09 520 521 520L548 520C550.91 520 555.948 520.912 558.397 518.972C560.915 516.977 560 511.819 560 509C562.626 508.998 567.112 509.746 568.972 507.397C570.624 505.31 569.999 501.469 570 499L570 480C569.999 477.531 570.624 473.69 568.972 471.603C567.112 469.254 562.626 470.002 560 470C559.998 467.374 560.746 462.888 558.397 461.028C555.456 458.699 548.532 460 545 460L509 460z"/>
<path style="fill:#930054; stroke:none;" d="M451 474L451 485L456 485L456 474L451 474M386 494C386 502.62 388.555 516.174 384.543 523.985C379.543 533.722 361.325 534.252 352 531.347C348.383 530.22 345.444 527.525 342 526C336.207 532.94 328.273 532 320 532C308.415 532 294.298 534.196 283 531.606C278.942 530.675 275.747 527.659 272 526C265.851 533.154 256.602 532.003 248 532C229.036 531.993 209.963 531.609 191 532C196.27 536.935 203.533 540.011 210 543.105C220.759 548.252 231.688 552.745 243 556.515C283.67 570.072 329.255 571.725 371 562.113C388.409 558.104 404.441 551.424 421 545L421 543C411.345 534.722 416.778 525.29 417.285 515C417.415 512.369 416.38 509.597 416 507C406.014 502.33 406 493.656 406 484C403.282 484.002 399.803 483.512 397.39 485.027C392.877 487.861 391.624 492.199 386 494M168 529C173.578 535.087 181.869 539.224 189 543.281C202.138 550.754 215.756 557.604 230 562.692C298.041 586.996 377.912 582.823 441 546C432.557 542.465 422.566 550.84 415 553.988C394.867 562.367 374.465 567.965 353 571.565C312.406 578.372 268.274 572.968 230 558.189C215.352 552.533 201.578 545.552 188 537.716C182.314 534.435 174.751 527.985 168 529M122 532C127.292 539.358 135.782 545.203 143 550.625C159.379 562.929 176.674 573.167 195 582.248C271.731 620.268 361.786 617.253 439 582.861C457.846 574.467 475.504 563.226 492 550.873C499.556 545.215 508.053 539.375 514 532C510.775 532 507.108 531.554 504 532.564C496.234 535.087 488.539 543.745 482 548.626C470.756 557.018 458.479 564.482 446 570.892C406.896 590.977 362.068 602.932 318 603C272.139 603.071 227.589 590.691 187 569.742C174.395 563.235 162.409 555.248 151 546.844C145.084 542.486 138.986 535.092 132 532.6C128.94 531.508 125.199 532 122 532z"/>
</svg>
